<svg xmlns="http://www.w3.org/2000/svg" version="1.1" xmlns:xlink="http://www.w3.org/1999/xlink" xmlns:svgjs="http://svgjs.com/svgjs" width="1589" height="1226" preserveAspectRatio="none" viewBox="0 0 1589 1226"><g mask="url(&quot;#SvgjsMask2929&quot;)" fill="none"><rect width="1589" height="1226" x="0" y="0" fill="url(#SvgjsLinearGradient2930)"></rect><path d="M1589 0L904.81 0L1589 233z" fill="rgba(255, 255, 255, .1)"></path><path d="M904.81 0L1589 233L1589 737.5L855.9499999999999 0z" fill="rgba(255, 255, 255, .075)"></path><path d="M855.9499999999999 0L1589 737.5L1589 789.16L725.6099999999999 0z" fill="rgba(255, 255, 255, .05)"></path><path d="M725.6099999999999 0L1589 789.16L1589 979.8599999999999L335.9799999999999 0z" fill="rgba(255, 255, 255, .025)"></path><path d="M0 1226L307.26 1226L0 942.96z" fill="rgba(0, 0, 0, .1)"></path><path d="M0 942.96L307.26 1226L480.27 1226L0 782.13z" fill="rgba(0, 0, 0, .075)"></path><path d="M0 782.13L480.27 1226L824.78 1226L0 597.44z" fill="rgba(0, 0, 0, .05)"></path><path d="M0 597.44L824.78 1226L1218.2 1226L0 384.4100000000001z" fill="rgba(0, 0, 0, .025)"></path></g><defs><mask id="SvgjsMask2929"><rect width="1589" height="1226" fill="#ffffff"></rect></mask><linearGradient x1="50%" y1="100%" x2="50%" y2="0%" gradientUnits="userSpaceOnUse" id="SvgjsLinearGradient2930"><stop stop-color="#0e2a47" offset="0"></stop><stop stop-color="rgba(159, 177, 52, 0.27)" offset="0.53"></stop><stop stop-color="rgba(137, 177, 52, 1)" offset="1"></stop></linearGradient></defs></svg>