<svg xmlns="http://www.w3.org/2000/svg" version="1.1" xmlns:xlink="http://www.w3.org/1999/xlink" xmlns:svgjs="http://svgjs.com/svgjs" width="1440" height="1226" preserveAspectRatio="none" viewBox="0 0 1440 1226"><g mask="url(&quot;#SvgjsMask2377&quot;)" fill="none"><rect width="1440" height="1226" x="0" y="0" fill="url(#SvgjsLinearGradient2378)"></rect><path d="M1440 0L1264.35 0L1440 37.4z" fill="rgba(255, 255, 255, .1)"></path><path d="M1264.35 0L1440 37.4L1440 256.14L752.8799999999999 0z" fill="rgba(255, 255, 255, .075)"></path><path d="M752.88 0L1440 256.14L1440 684.5999999999999L443.6 0z" fill="rgba(255, 255, 255, .05)"></path><path d="M443.6 0L1440 684.5999999999999L1440 903.5899999999999L190.12000000000003 0z" fill="rgba(255, 255, 255, .025)"></path><path d="M0 1226L255.98 1226L0 976.36z" fill="rgba(0, 0, 0, .1)"></path><path d="M0 976.36L255.98 1226L845.8100000000001 1226L0 961.69z" fill="rgba(0, 0, 0, .075)"></path><path d="M0 961.69L845.8100000000001 1226L916.82 1226L0 552.5500000000001z" fill="rgba(0, 0, 0, .05)"></path><path d="M0 552.55L916.82 1226L1000.1300000000001 1226L0 420.05999999999995z" fill="rgba(0, 0, 0, .025)"></path></g><defs><mask id="SvgjsMask2377"><rect width="1440" height="1226" fill="#ffffff"></rect></mask><linearGradient x1="96.28%" y1="-4.36%" x2="3.72%" y2="104.36%" gradientUnits="userSpaceOnUse" id="SvgjsLinearGradient2378"><stop stop-color="#0e2a47" offset="0"></stop><stop stop-color="rgba(199, 213, 232, 1)" offset="1"></stop></linearGradient></defs></svg>