<svg xmlns="http://www.w3.org/2000/svg" version="1.1" xmlns:xlink="http://www.w3.org/1999/xlink" xmlns:svgjs="http://svgjs.com/svgjs" width="1440" height="560" preserveAspectRatio="none" viewBox="0 0 1440 560"><g mask="url(&quot;#SvgjsMask1000&quot;)" fill="none"><rect width="1440" height="560" x="0" y="0" fill="#0e2a47"></rect><path d="M-98.59 405.1L-98.59 405.1" stroke="#132e65" stroke-width="1.5"></path><path d="M-98.59 405.1L-86.7 492.3" stroke="#132e65" stroke-width="1.5"></path><path d="M-98.59 405.1L60.41 499.93" stroke="#132e65" stroke-width="1.5"></path><path d="M-98.59 405.1L87.77 340" stroke="#132e65" stroke-width="1.5"></path><path d="M-98.59 405.1L192.17 403.91" stroke="#132e65" stroke-width="1.5"></path><path d="M-98.59 405.1L-61.27 696.29" stroke="#132e65" stroke-width="1.5"></path><path d="M-86.7 492.3L-86.7 492.3" stroke="#132e65" stroke-width="1.5"></path><path d="M-61.27 696.29L-61.27 696.29" stroke="#132e65" stroke-width="1.5"></path><path d="M-61.27 696.29L67.12 707.55" stroke="#132e65" stroke-width="1.5"></path><path d="M-61.27 696.29L-86.7 492.3" stroke="#132e65" stroke-width="1.5"></path><path d="M-61.27 696.29L60.41 499.93" stroke="#132e65" stroke-width="1.5"></path><path d="M-61.27 696.29L222.33 658.61" stroke="#132e65" stroke-width="1.5"></path><path d="M-61.27 696.29L236.19 551.65" stroke="#132e65" stroke-width="1.5"></path><path d="M87.77 340L87.77 340" stroke="#132e65" stroke-width="1.5"></path><path d="M87.77 340L192.17 403.91" stroke="#132e65" stroke-width="1.5"></path><path d="M87.77 340L60.41 499.93" stroke="#132e65" stroke-width="1.5"></path><path d="M87.77 340L-86.7 492.3" stroke="#132e65" stroke-width="1.5"></path><path d="M60.41 499.93L60.41 499.93" stroke="#132e65" stroke-width="1.5"></path><path d="M60.41 499.93L-86.7 492.3" stroke="#132e65" stroke-width="1.5"></path><path d="M67.12 707.55L67.12 707.55" stroke="#132e65" stroke-width="1.5"></path><path d="M67.12 707.55L222.33 658.61" stroke="#132e65" stroke-width="1.5"></path><path d="M67.12 707.55L60.41 499.93" stroke="#132e65" stroke-width="1.5"></path><path d="M67.12 707.55L236.19 551.65" stroke="#132e65" stroke-width="1.5"></path><path d="M192.17 403.91L192.17 403.91" stroke="#132e65" stroke-width="1.5"></path><path d="M192.17 403.91L236.19 551.65" stroke="#132e65" stroke-width="1.5"></path><path d="M192.17 403.91L60.41 499.93" stroke="#132e65" stroke-width="1.5"></path><path d="M192.17 403.91L376.57 364.47" stroke="#132e65" stroke-width="1.5"></path><path d="M236.19 551.65L236.19 551.65" stroke="#132e65" stroke-width="1.5"></path><path d="M236.19 551.65L222.33 658.61" stroke="#132e65" stroke-width="1.5"></path><path d="M236.19 551.65L399.28 543.11" stroke="#132e65" stroke-width="1.5"></path><path d="M236.19 551.65L369.92 673.8" stroke="#132e65" stroke-width="1.5"></path><path d="M222.33 658.61L222.33 658.61" stroke="#132e65" stroke-width="1.5"></path><path d="M222.33 658.61L369.92 673.8" stroke="#132e65" stroke-width="1.5"></path><path d="M376.57 364.47L376.57 364.47" stroke="#132e65" stroke-width="1.5"></path><path d="M376.57 364.47L503.91 368.69" stroke="#132e65" stroke-width="1.5"></path><path d="M376.57 364.47L399.28 543.11" stroke="#132e65" stroke-width="1.5"></path><path d="M376.57 364.47L501.03 508.2" stroke="#132e65" stroke-width="1.5"></path><path d="M376.57 364.47L236.19 551.65" stroke="#132e65" stroke-width="1.5"></path><path d="M376.57 364.47L651.95 404" stroke="#132e65" stroke-width="1.5"></path><path d="M399.28 543.11L399.28 543.11" stroke="#132e65" stroke-width="1.5"></path><path d="M399.28 543.11L501.03 508.2" stroke="#132e65" stroke-width="1.5"></path><path d="M399.28 543.11L369.92 673.8" stroke="#132e65" stroke-width="1.5"></path><path d="M399.28 543.11L498.1 690.39" stroke="#132e65" stroke-width="1.5"></path><path d="M399.28 543.11L503.91 368.69" stroke="#132e65" stroke-width="1.5"></path><path d="M369.92 673.8L369.92 673.8" stroke="#132e65" stroke-width="1.5"></path><path d="M369.92 673.8L498.1 690.39" stroke="#132e65" stroke-width="1.5"></path><path d="M503.91 368.69L503.91 368.69" stroke="#132e65" stroke-width="1.5"></path><path d="M503.91 368.69L501.03 508.2" stroke="#132e65" stroke-width="1.5"></path><path d="M503.91 368.69L651.95 404" stroke="#132e65" stroke-width="1.5"></path><path d="M501.03 508.2L501.03 508.2" stroke="#132e65" stroke-width="1.5"></path><path d="M501.03 508.2L638.51 538.7" stroke="#132e65" stroke-width="1.5"></path><path d="M501.03 508.2L498.1 690.39" stroke="#132e65" stroke-width="1.5"></path><path d="M501.03 508.2L651.95 404" stroke="#132e65" stroke-width="1.5"></path><path d="M498.1 690.39L498.1 690.39" stroke="#132e65" stroke-width="1.5"></path><path d="M498.1 690.39L653.76 660.32" stroke="#132e65" stroke-width="1.5"></path><path d="M642.35 231.24L642.35 231.24" stroke="#132e65" stroke-width="1.5"></path><path d="M642.35 231.24L651.95 404" stroke="#132e65" stroke-width="1.5"></path><path d="M642.35 231.24L813 198.62" stroke="#132e65" stroke-width="1.5"></path><path d="M642.35 231.24L503.91 368.69" stroke="#132e65" stroke-width="1.5"></path><path d="M642.35 231.24L791.19 378.09" stroke="#132e65" stroke-width="1.5"></path><path d="M642.35 231.24L860.71 68.2" stroke="#132e65" stroke-width="1.5"></path><path d="M642.35 231.24L376.57 364.47" stroke="#132e65" stroke-width="1.5"></path><path d="M651.95 404L651.95 404" stroke="#132e65" stroke-width="1.5"></path><path d="M651.95 404L638.51 538.7" stroke="#132e65" stroke-width="1.5"></path><path d="M651.95 404L791.19 378.09" stroke="#132e65" stroke-width="1.5"></path><path d="M651.95 404L829.6 562.25" stroke="#132e65" stroke-width="1.5"></path><path d="M638.51 538.7L638.51 538.7" stroke="#132e65" stroke-width="1.5"></path><path d="M638.51 538.7L653.76 660.32" stroke="#132e65" stroke-width="1.5"></path><path d="M638.51 538.7L829.6 562.25" stroke="#132e65" stroke-width="1.5"></path><path d="M653.76 660.32L653.76 660.32" stroke="#132e65" stroke-width="1.5"></path><path d="M653.76 660.32L806.82 689.39" stroke="#132e65" stroke-width="1.5"></path><path d="M860.71 68.2L860.71 68.2" stroke="#132e65" stroke-width="1.5"></path><path d="M860.71 68.2L979.79 93.46" stroke="#132e65" stroke-width="1.5"></path><path d="M860.71 68.2L813 198.62" stroke="#132e65" stroke-width="1.5"></path><path d="M860.71 68.2L959.84 -85.13" stroke="#132e65" stroke-width="1.5"></path><path d="M860.71 68.2L1005.75 246.35" stroke="#132e65" stroke-width="1.5"></path><path d="M813 198.62L813 198.62" stroke="#132e65" stroke-width="1.5"></path><path d="M791.19 378.09L791.19 378.09" stroke="#132e65" stroke-width="1.5"></path><path d="M791.19 378.09L813 198.62" stroke="#132e65" stroke-width="1.5"></path><path d="M829.6 562.25L829.6 562.25" stroke="#132e65" stroke-width="1.5"></path><path d="M829.6 562.25L806.82 689.39" stroke="#132e65" stroke-width="1.5"></path><path d="M829.6 562.25L958.27 520.78" stroke="#132e65" stroke-width="1.5"></path><path d="M829.6 562.25L791.19 378.09" stroke="#132e65" stroke-width="1.5"></path><path d="M806.82 689.39L806.82 689.39" stroke="#132e65" stroke-width="1.5"></path><path d="M959.84 -85.13L959.84 -85.13" stroke="#132e65" stroke-width="1.5"></path><path d="M959.84 -85.13L1127.28 -39.16" stroke="#132e65" stroke-width="1.5"></path><path d="M959.84 -85.13L979.79 93.46" stroke="#132e65" stroke-width="1.5"></path><path d="M959.84 -85.13L1160.07 90.13" stroke="#132e65" stroke-width="1.5"></path><path d="M959.84 -85.13L813 198.62" stroke="#132e65" stroke-width="1.5"></path><path d="M979.79 93.46L979.79 93.46" stroke="#132e65" stroke-width="1.5"></path><path d="M979.79 93.46L1005.75 246.35" stroke="#132e65" stroke-width="1.5"></path><path d="M1005.75 246.35L1005.75 246.35" stroke="#132e65" stroke-width="1.5"></path><path d="M1005.75 246.35L1108.15 222.18" stroke="#132e65" stroke-width="1.5"></path><path d="M1005.75 246.35L998.64 395.54" stroke="#132e65" stroke-width="1.5"></path><path d="M998.64 395.54L998.64 395.54" stroke="#132e65" stroke-width="1.5"></path><path d="M998.64 395.54L958.27 520.78" stroke="#132e65" stroke-width="1.5"></path><path d="M998.64 395.54L1130.2 389.63" stroke="#132e65" stroke-width="1.5"></path><path d="M958.27 520.78L958.27 520.78" stroke="#132e65" stroke-width="1.5"></path><path d="M995.82 683.73L995.82 683.73" stroke="#132e65" stroke-width="1.5"></path><path d="M995.82 683.73L1090.7 655.8" stroke="#132e65" stroke-width="1.5"></path><path d="M995.82 683.73L958.27 520.78" stroke="#132e65" stroke-width="1.5"></path><path d="M995.82 683.73L806.82 689.39" stroke="#132e65" stroke-width="1.5"></path><path d="M995.82 683.73L829.6 562.25" stroke="#132e65" stroke-width="1.5"></path><path d="M1127.28 -39.16L1127.28 -39.16" stroke="#132e65" stroke-width="1.5"></path><path d="M1127.28 -39.16L1160.07 90.13" stroke="#132e65" stroke-width="1.5"></path><path d="M1127.28 -39.16L1296.99 -80.79" stroke="#132e65" stroke-width="1.5"></path><path d="M1127.28 -39.16L979.79 93.46" stroke="#132e65" stroke-width="1.5"></path><path d="M1127.28 -39.16L1285.87 106.52" stroke="#132e65" stroke-width="1.5"></path><path d="M1160.07 90.13L1160.07 90.13" stroke="#132e65" stroke-width="1.5"></path><path d="M1160.07 90.13L1285.87 106.52" stroke="#132e65" stroke-width="1.5"></path><path d="M1160.07 90.13L1240.95 205.47" stroke="#132e65" stroke-width="1.5"></path><path d="M1160.07 90.13L1108.15 222.18" stroke="#132e65" stroke-width="1.5"></path><path d="M1160.07 90.13L979.79 93.46" stroke="#132e65" stroke-width="1.5"></path><path d="M1160.07 90.13L1296.99 -80.79" stroke="#132e65" stroke-width="1.5"></path><path d="M1108.15 222.18L1108.15 222.18" stroke="#132e65" stroke-width="1.5"></path><path d="M1108.15 222.18L1240.95 205.47" stroke="#132e65" stroke-width="1.5"></path><path d="M1108.15 222.18L1130.2 389.63" stroke="#132e65" stroke-width="1.5"></path><path d="M1108.15 222.18L1245.02 339.41" stroke="#132e65" stroke-width="1.5"></path><path d="M1108.15 222.18L979.79 93.46" stroke="#132e65" stroke-width="1.5"></path><path d="M1130.2 389.63L1130.2 389.63" stroke="#132e65" stroke-width="1.5"></path><path d="M1130.2 389.63L1245.02 339.41" stroke="#132e65" stroke-width="1.5"></path><path d="M1130.2 389.63L1158.38 541.58" stroke="#132e65" stroke-width="1.5"></path><path d="M1158.38 541.58L1158.38 541.58" stroke="#132e65" stroke-width="1.5"></path><path d="M1158.38 541.58L1274.22 525.04" stroke="#132e65" stroke-width="1.5"></path><path d="M1090.7 655.8L1090.7 655.8" stroke="#132e65" stroke-width="1.5"></path><path d="M1090.7 655.8L1158.38 541.58" stroke="#132e65" stroke-width="1.5"></path><path d="M1296.99 -80.79L1296.99 -80.79" stroke="#132e65" stroke-width="1.5"></path><path d="M1296.99 -80.79L1459.25 -40.12" stroke="#132e65" stroke-width="1.5"></path><path d="M1296.99 -80.79L1285.87 106.52" stroke="#132e65" stroke-width="1.5"></path><path d="M1296.99 -80.79L1460.94 101.65" stroke="#132e65" stroke-width="1.5"></path><path d="M1285.87 106.52L1285.87 106.52" stroke="#132e65" stroke-width="1.5"></path><path d="M1285.87 106.52L1240.95 205.47" stroke="#132e65" stroke-width="1.5"></path><path d="M1285.87 106.52L1411.56 220.99" stroke="#132e65" stroke-width="1.5"></path><path d="M1285.87 106.52L1460.94 101.65" stroke="#132e65" stroke-width="1.5"></path><path d="M1240.95 205.47L1240.95 205.47" stroke="#132e65" stroke-width="1.5"></path><path d="M1240.95 205.47L1245.02 339.41" stroke="#132e65" stroke-width="1.5"></path><path d="M1240.95 205.47L1411.56 220.99" stroke="#132e65" stroke-width="1.5"></path><path d="M1245.02 339.41L1245.02 339.41" stroke="#132e65" stroke-width="1.5"></path><path d="M1245.02 339.41L1426.89 382.76" stroke="#132e65" stroke-width="1.5"></path><path d="M1245.02 339.41L1274.22 525.04" stroke="#132e65" stroke-width="1.5"></path><path d="M1274.22 525.04L1274.22 525.04" stroke="#132e65" stroke-width="1.5"></path><path d="M1274.22 525.04L1439.04 554.6" stroke="#132e65" stroke-width="1.5"></path><path d="M1286.78 702.76L1286.78 702.76" stroke="#132e65" stroke-width="1.5"></path><path d="M1286.78 702.76L1408.12 663.81" stroke="#132e65" stroke-width="1.5"></path><path d="M1286.78 702.76L1274.22 525.04" stroke="#132e65" stroke-width="1.5"></path><path d="M1286.78 702.76L1090.7 655.8" stroke="#132e65" stroke-width="1.5"></path><path d="M1286.78 702.76L1158.38 541.58" stroke="#132e65" stroke-width="1.5"></path><path d="M1286.78 702.76L1439.04 554.6" stroke="#132e65" stroke-width="1.5"></path><path d="M1459.25 -40.12L1459.25 -40.12" stroke="#132e65" stroke-width="1.5"></path><path d="M1459.25 -40.12L1541.84 59.91" stroke="#132e65" stroke-width="1.5"></path><path d="M1459.25 -40.12L1578.8 -98.39" stroke="#132e65" stroke-width="1.5"></path><path d="M1459.25 -40.12L1460.94 101.65" stroke="#132e65" stroke-width="1.5"></path><path d="M1460.94 101.65L1460.94 101.65" stroke="#132e65" stroke-width="1.5"></path><path d="M1460.94 101.65L1541.84 59.91" stroke="#132e65" stroke-width="1.5"></path><path d="M1460.94 101.65L1411.56 220.99" stroke="#132e65" stroke-width="1.5"></path><path d="M1411.56 220.99L1411.56 220.99" stroke="#132e65" stroke-width="1.5"></path><path d="M1411.56 220.99L1426.89 382.76" stroke="#132e65" stroke-width="1.5"></path><path d="M1426.89 382.76L1426.89 382.76" stroke="#132e65" stroke-width="1.5"></path><path d="M1426.89 382.76L1439.04 554.6" stroke="#132e65" stroke-width="1.5"></path><path d="M1439.04 554.6L1439.04 554.6" stroke="#132e65" stroke-width="1.5"></path><path d="M1439.04 554.6L1408.12 663.81" stroke="#132e65" stroke-width="1.5"></path><path d="M1439.04 554.6L1564.64 509.95" stroke="#132e65" stroke-width="1.5"></path><path d="M1408.12 663.81L1408.12 663.81" stroke="#132e65" stroke-width="1.5"></path><path d="M1408.12 663.81L1590.38 691.45" stroke="#132e65" stroke-width="1.5"></path><path d="M1408.12 663.81L1274.22 525.04" stroke="#132e65" stroke-width="1.5"></path><path d="M1408.12 663.81L1564.64 509.95" stroke="#132e65" stroke-width="1.5"></path><path d="M1408.12 663.81L1158.38 541.58" stroke="#132e65" stroke-width="1.5"></path><path d="M1578.8 -98.39L1578.8 -98.39" stroke="#132e65" stroke-width="1.5"></path><path d="M1578.8 -98.39L1541.84 59.91" stroke="#132e65" stroke-width="1.5"></path><path d="M1578.8 -98.39L1460.94 101.65" stroke="#132e65" stroke-width="1.5"></path><path d="M1541.84 59.91L1541.84 59.91" stroke="#132e65" stroke-width="1.5"></path><path d="M1589.95 257.81L1589.95 257.81" stroke="#132e65" stroke-width="1.5"></path><path d="M1589.95 257.81L1411.56 220.99" stroke="#132e65" stroke-width="1.5"></path><path d="M1589.95 257.81L1460.94 101.65" stroke="#132e65" stroke-width="1.5"></path><path d="M1589.95 257.81L1541.84 59.91" stroke="#132e65" stroke-width="1.5"></path><path d="M1589.95 257.81L1426.89 382.76" stroke="#132e65" stroke-width="1.5"></path><path d="M1589.95 257.81L1564.64 509.95" stroke="#132e65" stroke-width="1.5"></path><path d="M1564.64 509.95L1564.64 509.95" stroke="#132e65" stroke-width="1.5"></path><path d="M1564.64 509.95L1590.38 691.45" stroke="#132e65" stroke-width="1.5"></path><path d="M1590.38 691.45L1590.38 691.45" stroke="#132e65" stroke-width="1.5"></path><path d="M1590.38 691.45L1439.04 554.6" stroke="#132e65" stroke-width="1.5"></path><circle r="5" cx="-98.59" cy="405.1" fill="#132e65"></circle><circle r="5" cx="-86.7" cy="492.3" fill="#132e65"></circle><circle r="5" cx="-61.27" cy="696.29" fill="#132e65"></circle><circle r="5" cx="87.77" cy="340" fill="#132e65"></circle><circle r="5" cx="60.41" cy="499.93" fill="#132e65"></circle><circle r="5" cx="67.12" cy="707.55" fill="#132e65"></circle><circle r="5" cx="192.17" cy="403.91" fill="#132e65"></circle><circle r="5" cx="236.19" cy="551.65" fill="#132e65"></circle><circle r="5" cx="222.33" cy="658.61" fill="#132e65"></circle><circle r="5" cx="376.57" cy="364.47" fill="#132e65"></circle><circle r="5" cx="399.28" cy="543.11" fill="#132e65"></circle><circle r="5" cx="369.92" cy="673.8" fill="#132e65"></circle><circle r="5" cx="503.91" cy="368.69" fill="#132e65"></circle><circle r="5" cx="501.03" cy="508.2" fill="#132e65"></circle><circle r="5" cx="498.1" cy="690.39" fill="#132e65"></circle><circle r="5" cx="642.35" cy="231.24" fill="#132e65"></circle><circle r="5" cx="651.95" cy="404" fill="#132e65"></circle><circle r="5" cx="638.51" cy="538.7" fill="#132e65"></circle><circle r="5" cx="653.76" cy="660.32" fill="#132e65"></circle><circle r="5" cx="860.71" cy="68.2" fill="#132e65"></circle><circle r="5" cx="813" cy="198.62" fill="#132e65"></circle><circle r="5" cx="791.19" cy="378.09" fill="#132e65"></circle><circle r="5" cx="829.6" cy="562.25" fill="#132e65"></circle><circle r="5" cx="806.82" cy="689.39" fill="#132e65"></circle><circle r="5" cx="959.84" cy="-85.13" fill="#132e65"></circle><circle r="5" cx="979.79" cy="93.46" fill="#132e65"></circle><circle r="5" cx="1005.75" cy="246.35" fill="#132e65"></circle><circle r="5" cx="998.64" cy="395.54" fill="#132e65"></circle><circle r="5" cx="958.27" cy="520.78" fill="#132e65"></circle><circle r="5" cx="995.82" cy="683.73" fill="#132e65"></circle><circle r="5" cx="1127.28" cy="-39.16" fill="#132e65"></circle><circle r="5" cx="1160.07" cy="90.13" fill="#132e65"></circle><circle r="5" cx="1108.15" cy="222.18" fill="#132e65"></circle><circle r="5" cx="1130.2" cy="389.63" fill="#132e65"></circle><circle r="5" cx="1158.38" cy="541.58" fill="#132e65"></circle><circle r="5" cx="1090.7" cy="655.8" fill="#132e65"></circle><circle r="5" cx="1296.99" cy="-80.79" fill="#132e65"></circle><circle r="5" cx="1285.87" cy="106.52" fill="#132e65"></circle><circle r="5" cx="1240.95" cy="205.47" fill="#132e65"></circle><circle r="5" cx="1245.02" cy="339.41" fill="#132e65"></circle><circle r="5" cx="1274.22" cy="525.04" fill="#132e65"></circle><circle r="5" cx="1286.78" cy="702.76" fill="#132e65"></circle><circle r="5" cx="1459.25" cy="-40.12" fill="#132e65"></circle><circle r="5" cx="1460.94" cy="101.65" fill="#132e65"></circle><circle r="5" cx="1411.56" cy="220.99" fill="#132e65"></circle><circle r="5" cx="1426.89" cy="382.76" fill="#132e65"></circle><circle r="5" cx="1439.04" cy="554.6" fill="#132e65"></circle><circle r="5" cx="1408.12" cy="663.81" fill="#132e65"></circle><circle r="5" cx="1578.8" cy="-98.39" fill="#132e65"></circle><circle r="5" cx="1541.84" cy="59.91" fill="#132e65"></circle><circle r="5" cx="1589.95" cy="257.81" fill="#132e65"></circle><circle r="5" cx="1564.64" cy="509.95" fill="#132e65"></circle><circle r="5" cx="1590.38" cy="691.45" fill="#132e65"></circle><path d="M648.78 379.17L648.78 379.17" stroke="hsl(228.5, 77.2%, 51.5%)" stroke-width="1.5"></path><path d="M648.78 379.17L652.55 534.67" stroke="hsl(228.5, 77.2%, 51.5%)" stroke-width="1.5"></path><path d="M648.78 379.17L827.78 404.65" stroke="hsl(228.5, 77.2%, 51.5%)" stroke-width="1.5"></path><path d="M648.78 379.17L806.66 521.78" stroke="hsl(228.5, 77.2%, 51.5%)" stroke-width="1.5"></path><path d="M827.78 404.65L827.78 404.65" stroke="hsl(228.5, 77.2%, 51.5%)" stroke-width="1.5"></path><path d="M827.78 404.65L806.66 521.78" stroke="hsl(228.5, 77.2%, 51.5%)" stroke-width="1.5"></path><path d="M827.78 404.65L954.76 526.28" stroke="hsl(228.5, 77.2%, 51.5%)" stroke-width="1.5"></path><path d="M827.78 404.65L993.97 338.6" stroke="hsl(228.5, 77.2%, 51.5%)" stroke-width="1.5"></path><path d="M1405.76 697.85L1405.76 697.85" stroke="hsl(228.5, 77.2%, 51.5%)" stroke-width="1.5"></path><path d="M1405.76 697.85L1253.74 679.49" stroke="hsl(228.5, 77.2%, 51.5%)" stroke-width="1.5"></path><path d="M1405.76 697.85L1440.45 501.72" stroke="hsl(228.5, 77.2%, 51.5%)" stroke-width="1.5"></path><path d="M1405.76 697.85L1281.65 497.02" stroke="hsl(228.5, 77.2%, 51.5%)" stroke-width="1.5"></path><path d="M1405.76 697.85L1560.33 492.99" stroke="hsl(228.5, 77.2%, 51.5%)" stroke-width="1.5"></path><path d="M1405.76 697.85L1097.59 694.4" stroke="hsl(228.5, 77.2%, 51.5%)" stroke-width="1.5"></path><path d="M1606.01 60.83L1606.01 60.83" stroke="hsl(228.5, 77.2%, 51.5%)" stroke-width="1.5"></path><path d="M1606.01 60.83L1594.33 -111.08" stroke="hsl(228.5, 77.2%, 51.5%)" stroke-width="1.5"></path><path d="M1606.01 60.83L1611.34 233.38" stroke="hsl(228.5, 77.2%, 51.5%)" stroke-width="1.5"></path><path d="M1606.01 60.83L1389.1 69.47" stroke="hsl(228.5, 77.2%, 51.5%)" stroke-width="1.5"></path><path d="M1606.01 60.83L1418.16 -57.1" stroke="hsl(228.5, 77.2%, 51.5%)" stroke-width="1.5"></path><path d="M1560.33 492.99L1560.33 492.99" stroke="hsl(228.5, 77.2%, 51.5%)" stroke-width="1.5"></path><path d="M1560.33 492.99L1440.45 501.72" stroke="hsl(228.5, 77.2%, 51.5%)" stroke-width="1.5"></path><path d="M1560.33 492.99L1595.02 362.57" stroke="hsl(228.5, 77.2%, 51.5%)" stroke-width="1.5"></path><path d="M1560.33 492.99L1419.06 374.42" stroke="hsl(228.5, 77.2%, 51.5%)" stroke-width="1.5"></path><path d="M-42.96 505.48L-42.96 505.48" stroke="hsl(228.5, 77.2%, 51.5%)" stroke-width="1.5"></path><path d="M-42.96 505.48L92.61 531.74" stroke="hsl(228.5, 77.2%, 51.5%)" stroke-width="1.5"></path><path d="M-42.96 505.48L-45.18 691.21" stroke="hsl(228.5, 77.2%, 51.5%)" stroke-width="1.5"></path><path d="M-42.96 505.48L64.99 688.85" stroke="hsl(228.5, 77.2%, 51.5%)" stroke-width="1.5"></path><path d="M-42.96 505.48L252.07 544.01" stroke="hsl(228.5, 77.2%, 51.5%)" stroke-width="1.5"></path><path d="M-42.96 505.48L262.19 688.53" stroke="hsl(228.5, 77.2%, 51.5%)" stroke-width="1.5"></path><path d="M-45.18 691.21L-45.18 691.21" stroke="hsl(228.5, 77.2%, 51.5%)" stroke-width="1.5"></path><path d="M-45.18 691.21L64.99 688.85" stroke="hsl(228.5, 77.2%, 51.5%)" stroke-width="1.5"></path><path d="M92.61 531.74L92.61 531.74" stroke="hsl(228.5, 77.2%, 51.5%)" stroke-width="1.5"></path><path d="M92.61 531.74L64.99 688.85" stroke="hsl(228.5, 77.2%, 51.5%)" stroke-width="1.5"></path><path d="M92.61 531.74L252.07 544.01" stroke="hsl(228.5, 77.2%, 51.5%)" stroke-width="1.5"></path><path d="M92.61 531.74L-45.18 691.21" stroke="hsl(228.5, 77.2%, 51.5%)" stroke-width="1.5"></path><path d="M64.99 688.85L64.99 688.85" stroke="hsl(228.5, 77.2%, 51.5%)" stroke-width="1.5"></path><path d="M252.07 544.01L252.07 544.01" stroke="hsl(228.5, 77.2%, 51.5%)" stroke-width="1.5"></path><path d="M252.07 544.01L262.19 688.53" stroke="hsl(228.5, 77.2%, 51.5%)" stroke-width="1.5"></path><path d="M252.07 544.01L380.41 641.73" stroke="hsl(228.5, 77.2%, 51.5%)" stroke-width="1.5"></path><path d="M252.07 544.01L64.99 688.85" stroke="hsl(228.5, 77.2%, 51.5%)" stroke-width="1.5"></path><path d="M262.19 688.53L262.19 688.53" stroke="hsl(228.5, 77.2%, 51.5%)" stroke-width="1.5"></path><path d="M262.19 688.53L380.41 641.73" stroke="hsl(228.5, 77.2%, 51.5%)" stroke-width="1.5"></path><path d="M262.19 688.53L64.99 688.85" stroke="hsl(228.5, 77.2%, 51.5%)" stroke-width="1.5"></path><path d="M380.41 641.73L380.41 641.73" stroke="hsl(228.5, 77.2%, 51.5%)" stroke-width="1.5"></path><path d="M380.41 641.73L542.73 642.87" stroke="hsl(228.5, 77.2%, 51.5%)" stroke-width="1.5"></path><path d="M542.73 642.87L542.73 642.87" stroke="hsl(228.5, 77.2%, 51.5%)" stroke-width="1.5"></path><path d="M542.73 642.87L652.55 534.67" stroke="hsl(228.5, 77.2%, 51.5%)" stroke-width="1.5"></path><path d="M542.73 642.87L648.78 379.17" stroke="hsl(228.5, 77.2%, 51.5%)" stroke-width="1.5"></path><path d="M652.55 534.67L652.55 534.67" stroke="hsl(228.5, 77.2%, 51.5%)" stroke-width="1.5"></path><path d="M652.55 534.67L806.66 521.78" stroke="hsl(228.5, 77.2%, 51.5%)" stroke-width="1.5"></path><path d="M806.66 521.78L806.66 521.78" stroke="hsl(228.5, 77.2%, 51.5%)" stroke-width="1.5"></path><path d="M806.66 521.78L954.76 526.28" stroke="hsl(228.5, 77.2%, 51.5%)" stroke-width="1.5"></path><path d="M806.66 521.78L862.42 659.2" stroke="hsl(228.5, 77.2%, 51.5%)" stroke-width="1.5"></path><path d="M862.42 659.2L862.42 659.2" stroke="hsl(228.5, 77.2%, 51.5%)" stroke-width="1.5"></path><path d="M862.42 659.2L966 656.16" stroke="hsl(228.5, 77.2%, 51.5%)" stroke-width="1.5"></path><path d="M998.65 260.1L998.65 260.1" stroke="hsl(228.5, 77.2%, 51.5%)" stroke-width="1.5"></path><path d="M998.65 260.1L993.97 338.6" stroke="hsl(228.5, 77.2%, 51.5%)" stroke-width="1.5"></path><path d="M998.65 260.1L1103.08 256.04" stroke="hsl(228.5, 77.2%, 51.5%)" stroke-width="1.5"></path><path d="M998.65 260.1L1091.11 406.73" stroke="hsl(228.5, 77.2%, 51.5%)" stroke-width="1.5"></path><path d="M998.65 260.1L827.78 404.65" stroke="hsl(228.5, 77.2%, 51.5%)" stroke-width="1.5"></path><path d="M993.97 338.6L993.97 338.6" stroke="hsl(228.5, 77.2%, 51.5%)" stroke-width="1.5"></path><path d="M993.97 338.6L1091.11 406.73" stroke="hsl(228.5, 77.2%, 51.5%)" stroke-width="1.5"></path><path d="M993.97 338.6L1103.08 256.04" stroke="hsl(228.5, 77.2%, 51.5%)" stroke-width="1.5"></path><path d="M993.97 338.6L954.76 526.28" stroke="hsl(228.5, 77.2%, 51.5%)" stroke-width="1.5"></path><path d="M993.97 338.6L1123.7 528.65" stroke="hsl(228.5, 77.2%, 51.5%)" stroke-width="1.5"></path><path d="M954.76 526.28L954.76 526.28" stroke="hsl(228.5, 77.2%, 51.5%)" stroke-width="1.5"></path><path d="M954.76 526.28L966 656.16" stroke="hsl(228.5, 77.2%, 51.5%)" stroke-width="1.5"></path><path d="M954.76 526.28L862.42 659.2" stroke="hsl(228.5, 77.2%, 51.5%)" stroke-width="1.5"></path><path d="M966 656.16L966 656.16" stroke="hsl(228.5, 77.2%, 51.5%)" stroke-width="1.5"></path><path d="M966 656.16L1097.59 694.4" stroke="hsl(228.5, 77.2%, 51.5%)" stroke-width="1.5"></path><path d="M966 656.16L1123.7 528.65" stroke="hsl(228.5, 77.2%, 51.5%)" stroke-width="1.5"></path><path d="M1103.08 256.04L1103.08 256.04" stroke="hsl(228.5, 77.2%, 51.5%)" stroke-width="1.5"></path><path d="M1103.08 256.04L1091.11 406.73" stroke="hsl(228.5, 77.2%, 51.5%)" stroke-width="1.5"></path><path d="M1103.08 256.04L1255.68 401.71" stroke="hsl(228.5, 77.2%, 51.5%)" stroke-width="1.5"></path><path d="M1103.08 256.04L1123.7 528.65" stroke="hsl(228.5, 77.2%, 51.5%)" stroke-width="1.5"></path><path d="M1103.08 256.04L1272.65 40.57" stroke="hsl(228.5, 77.2%, 51.5%)" stroke-width="1.5"></path><path d="M1091.11 406.73L1091.11 406.73" stroke="hsl(228.5, 77.2%, 51.5%)" stroke-width="1.5"></path><path d="M1091.11 406.73L1123.7 528.65" stroke="hsl(228.5, 77.2%, 51.5%)" stroke-width="1.5"></path><path d="M1123.7 528.65L1123.7 528.65" stroke="hsl(228.5, 77.2%, 51.5%)" stroke-width="1.5"></path><path d="M1123.7 528.65L1281.65 497.02" stroke="hsl(228.5, 77.2%, 51.5%)" stroke-width="1.5"></path><path d="M1123.7 528.65L1097.59 694.4" stroke="hsl(228.5, 77.2%, 51.5%)" stroke-width="1.5"></path><path d="M1097.59 694.4L1097.59 694.4" stroke="hsl(228.5, 77.2%, 51.5%)" stroke-width="1.5"></path><path d="M1097.59 694.4L1253.74 679.49" stroke="hsl(228.5, 77.2%, 51.5%)" stroke-width="1.5"></path><path d="M1271.12 -69.88L1271.12 -69.88" stroke="hsl(228.5, 77.2%, 51.5%)" stroke-width="1.5"></path><path d="M1271.12 -69.88L1272.65 40.57" stroke="hsl(228.5, 77.2%, 51.5%)" stroke-width="1.5"></path><path d="M1271.12 -69.88L1418.16 -57.1" stroke="hsl(228.5, 77.2%, 51.5%)" stroke-width="1.5"></path><path d="M1271.12 -69.88L1389.1 69.47" stroke="hsl(228.5, 77.2%, 51.5%)" stroke-width="1.5"></path><path d="M1271.12 -69.88L1409.4 218.44" stroke="hsl(228.5, 77.2%, 51.5%)" stroke-width="1.5"></path><path d="M1271.12 -69.88L1594.33 -111.08" stroke="hsl(228.5, 77.2%, 51.5%)" stroke-width="1.5"></path><path d="M1272.65 40.57L1272.65 40.57" stroke="hsl(228.5, 77.2%, 51.5%)" stroke-width="1.5"></path><path d="M1272.65 40.57L1389.1 69.47" stroke="hsl(228.5, 77.2%, 51.5%)" stroke-width="1.5"></path><path d="M1272.65 40.57L1418.16 -57.1" stroke="hsl(228.5, 77.2%, 51.5%)" stroke-width="1.5"></path><path d="M1272.65 40.57L1409.4 218.44" stroke="hsl(228.5, 77.2%, 51.5%)" stroke-width="1.5"></path><path d="M1255.68 401.71L1255.68 401.71" stroke="hsl(228.5, 77.2%, 51.5%)" stroke-width="1.5"></path><path d="M1255.68 401.71L1281.65 497.02" stroke="hsl(228.5, 77.2%, 51.5%)" stroke-width="1.5"></path><path d="M1255.68 401.71L1091.11 406.73" stroke="hsl(228.5, 77.2%, 51.5%)" stroke-width="1.5"></path><path d="M1255.68 401.71L1419.06 374.42" stroke="hsl(228.5, 77.2%, 51.5%)" stroke-width="1.5"></path><path d="M1281.65 497.02L1281.65 497.02" stroke="hsl(228.5, 77.2%, 51.5%)" stroke-width="1.5"></path><path d="M1253.74 679.49L1253.74 679.49" stroke="hsl(228.5, 77.2%, 51.5%)" stroke-width="1.5"></path><path d="M1418.16 -57.1L1418.16 -57.1" stroke="hsl(228.5, 77.2%, 51.5%)" stroke-width="1.5"></path><path d="M1418.16 -57.1L1389.1 69.47" stroke="hsl(228.5, 77.2%, 51.5%)" stroke-width="1.5"></path><path d="M1389.1 69.47L1389.1 69.47" stroke="hsl(228.5, 77.2%, 51.5%)" stroke-width="1.5"></path><path d="M1389.1 69.47L1409.4 218.44" stroke="hsl(228.5, 77.2%, 51.5%)" stroke-width="1.5"></path><path d="M1409.4 218.44L1409.4 218.44" stroke="hsl(228.5, 77.2%, 51.5%)" stroke-width="1.5"></path><path d="M1409.4 218.44L1419.06 374.42" stroke="hsl(228.5, 77.2%, 51.5%)" stroke-width="1.5"></path><path d="M1419.06 374.42L1419.06 374.42" stroke="hsl(228.5, 77.2%, 51.5%)" stroke-width="1.5"></path><path d="M1419.06 374.42L1440.45 501.72" stroke="hsl(228.5, 77.2%, 51.5%)" stroke-width="1.5"></path><path d="M1419.06 374.42L1595.02 362.57" stroke="hsl(228.5, 77.2%, 51.5%)" stroke-width="1.5"></path><path d="M1419.06 374.42L1281.65 497.02" stroke="hsl(228.5, 77.2%, 51.5%)" stroke-width="1.5"></path><path d="M1440.45 501.72L1440.45 501.72" stroke="hsl(228.5, 77.2%, 51.5%)" stroke-width="1.5"></path><path d="M1594.33 -111.08L1594.33 -111.08" stroke="hsl(228.5, 77.2%, 51.5%)" stroke-width="1.5"></path><path d="M1594.33 -111.08L1418.16 -57.1" stroke="hsl(228.5, 77.2%, 51.5%)" stroke-width="1.5"></path><path d="M1594.33 -111.08L1389.1 69.47" stroke="hsl(228.5, 77.2%, 51.5%)" stroke-width="1.5"></path><path d="M1611.34 233.38L1611.34 233.38" stroke="hsl(228.5, 77.2%, 51.5%)" stroke-width="1.5"></path><path d="M1611.34 233.38L1595.02 362.57" stroke="hsl(228.5, 77.2%, 51.5%)" stroke-width="1.5"></path><path d="M1611.34 233.38L1409.4 218.44" stroke="hsl(228.5, 77.2%, 51.5%)" stroke-width="1.5"></path><path d="M1611.34 233.38L1419.06 374.42" stroke="hsl(228.5, 77.2%, 51.5%)" stroke-width="1.5"></path><path d="M1611.34 233.38L1560.33 492.99" stroke="hsl(228.5, 77.2%, 51.5%)" stroke-width="1.5"></path><path d="M1595.02 362.57L1595.02 362.57" stroke="hsl(228.5, 77.2%, 51.5%)" stroke-width="1.5"></path><circle r="25" cx="648.78" cy="379.17" fill="url(#SvgjsRadialGradient1001)"></circle><circle r="25" cx="827.78" cy="404.65" fill="url(#SvgjsRadialGradient1001)"></circle><circle r="25" cx="1405.76" cy="697.85" fill="url(#SvgjsRadialGradient1001)"></circle><circle r="25" cx="1606.01" cy="60.83" fill="url(#SvgjsRadialGradient1001)"></circle><circle r="25" cx="1560.33" cy="492.99" fill="url(#SvgjsRadialGradient1001)"></circle><circle r="5" cx="-42.96" cy="505.48" fill="#8b9ad9"></circle><circle r="5" cx="-45.18" cy="691.21" fill="#8b9ad9"></circle><circle r="5" cx="92.61" cy="531.74" fill="#8b9ad9"></circle><circle r="5" cx="64.99" cy="688.85" fill="#8b9ad9"></circle><circle r="5" cx="252.07" cy="544.01" fill="#8b9ad9"></circle><circle r="5" cx="262.19" cy="688.53" fill="#8b9ad9"></circle><circle r="5" cx="380.41" cy="641.73" fill="#8b9ad9"></circle><circle r="5" cx="542.73" cy="642.87" fill="#8b9ad9"></circle><circle r="5" cx="652.55" cy="534.67" fill="#8b9ad9"></circle><circle r="5" cx="806.66" cy="521.78" fill="#8b9ad9"></circle><circle r="5" cx="862.42" cy="659.2" fill="#8b9ad9"></circle><circle r="5" cx="998.65" cy="260.1" fill="#8b9ad9"></circle><circle r="5" cx="993.97" cy="338.6" fill="#8b9ad9"></circle><circle r="5" cx="954.76" cy="526.28" fill="#8b9ad9"></circle><circle r="5" cx="966" cy="656.16" fill="#8b9ad9"></circle><circle r="5" cx="1103.08" cy="256.04" fill="#8b9ad9"></circle><circle r="5" cx="1091.11" cy="406.73" fill="#8b9ad9"></circle><circle r="5" cx="1123.7" cy="528.65" fill="#8b9ad9"></circle><circle r="5" cx="1097.59" cy="694.4" fill="#8b9ad9"></circle><circle r="5" cx="1271.12" cy="-69.88" fill="#8b9ad9"></circle><circle r="5" cx="1272.65" cy="40.57" fill="#8b9ad9"></circle><circle r="5" cx="1255.68" cy="401.71" fill="#8b9ad9"></circle><circle r="5" cx="1281.65" cy="497.02" fill="#8b9ad9"></circle><circle r="5" cx="1253.74" cy="679.49" fill="#8b9ad9"></circle><circle r="5" cx="1418.16" cy="-57.1" fill="#8b9ad9"></circle><circle r="5" cx="1389.1" cy="69.47" fill="#8b9ad9"></circle><circle r="5" cx="1409.4" cy="218.44" fill="#8b9ad9"></circle><circle r="5" cx="1419.06" cy="374.42" fill="#8b9ad9"></circle><circle r="5" cx="1440.45" cy="501.72" fill="#8b9ad9"></circle><circle r="5" cx="1594.33" cy="-111.08" fill="#8b9ad9"></circle><circle r="5" cx="1611.34" cy="233.38" fill="#8b9ad9"></circle><circle r="5" cx="1595.02" cy="362.57" fill="#8b9ad9"></circle></g><defs><mask id="SvgjsMask1000"><rect width="1440" height="560" fill="#ffffff"></rect></mask><radialGradient id="SvgjsRadialGradient1001"><stop stop-color="#ffffff" offset="0.1"></stop><stop stop-color="#1735b3" offset="0.2"></stop><stop stop-color="rgba(23, 53, 179, 0)" offset="1"></stop></radialGradient></defs></svg>